<svg width="22" height="22" viewBox="0 0 22 22" fill="none" xmlns="http://www.w3.org/2000/svg">
<path d="M4.12467 7.83919C4.12467 9.66794 5.50426 11.0475 7.33301 11.0475C9.16176 11.0475 10.5413 9.66794 10.5413 7.83919C10.5413 6.01044 9.16176 4.63086 7.33301 4.63086C5.50426 4.63086 4.12467 6.01044 4.12467 7.83919ZM17.4163 7.33319H15.583V10.0832H12.833V11.9165H15.583V14.6665H17.4163V11.9165H20.1663V10.0832H17.4163V7.33319ZM3.66634 17.4165H12.833V16.4999C12.833 13.9726 10.7769 11.9165 8.24967 11.9165H6.41634C3.88909 11.9165 1.83301 13.9726 1.83301 16.4999V17.4165H3.66634Z" fill="white"/>
</svg>
