<svg width="21" height="17" viewBox="0 0 21 17" fill="none" xmlns="http://www.w3.org/2000/svg">
<path d="M18.5143 13.3714C18.5143 13.6442 18.4059 13.9058 18.213 14.0987C18.0201 14.2916 17.7585 14.4 17.4857 14.4C17.2129 14.4 16.9513 14.2916 16.7584 14.0987C16.5655 13.9058 16.4571 13.6442 16.4571 13.3714V1.02857C16.4571 0.755777 16.3488 0.494156 16.1559 0.301262C15.963 0.108367 15.7014 0 15.4286 0H1.02857C0.755777 0 0.494156 0.108367 0.301262 0.301262C0.108367 0.494156 0 0.755777 0 1.02857V14.4C0 14.9456 0.216734 15.4688 0.602523 15.8546C0.988312 16.2404 1.51155 16.4571 2.05714 16.4571H17.4857C19.187 16.4571 20.5714 15.0727 20.5714 13.3714V3.08571H18.5143V13.3714ZM10.2857 3.08571H13.3714V5.14286H10.2857V3.08571ZM10.2857 7.2H13.3714V9.25714H10.2857V7.2ZM3.08571 3.08571H8.22857V9.25714H3.08571V3.08571ZM3.08571 13.3714V11.3143H13.3714V13.3714H3.08571Z" fill="#111111"/>
</svg>
