<svg width="22" height="22" viewBox="0 0 22 22" fill="none" xmlns="http://www.w3.org/2000/svg">
<path fill-rule="evenodd" clip-rule="evenodd" d="M17.5 11C17.5 14.5899 14.5899 17.5 11 17.5C9.75805 17.5 8.59746 17.1517 7.61057 16.5474L16.232 7.14227C17.0289 8.2213 17.5 9.55563 17.5 11ZM5.76804 14.8577L14.3894 5.45258C13.4025 4.84831 12.2419 4.5 11 4.5C7.41015 4.5 4.5 7.41015 4.5 11C4.5 12.4444 4.9711 13.7787 5.76804 14.8577ZM20 11C20 15.9706 15.9706 20 11 20C6.02944 20 2 15.9706 2 11C2 6.02944 6.02944 2 11 2C15.9706 2 20 6.02944 20 11Z" fill="black"/>
</svg>
