<svg width="18" height="6" viewBox="0 0 18 6" fill="none" xmlns="http://www.w3.org/2000/svg">
<path d="M8.99967 3.91665C9.50594 3.91665 9.91634 3.50624 9.91634 2.99998C9.91634 2.49372 9.50594 2.08331 8.99967 2.08331C8.49341 2.08331 8.08301 2.49372 8.08301 2.99998C8.08301 3.50624 8.49341 3.91665 8.99967 3.91665Z" fill="#111111" stroke="#111111" stroke-width="2.5" stroke-linecap="round" stroke-linejoin="round"/>
<path d="M15.4167 3.91665C15.9229 3.91665 16.3333 3.50624 16.3333 2.99998C16.3333 2.49372 15.9229 2.08331 15.4167 2.08331C14.9104 2.08331 14.5 2.49372 14.5 2.99998C14.5 3.50624 14.9104 3.91665 15.4167 3.91665Z" fill="#111111" stroke="#111111" stroke-width="2.5" stroke-linecap="round" stroke-linejoin="round"/>
<path d="M2.58317 3.91665C3.08943 3.91665 3.49984 3.50624 3.49984 2.99998C3.49984 2.49372 3.08943 2.08331 2.58317 2.08331C2.07691 2.08331 1.6665 2.49372 1.6665 2.99998C1.6665 3.50624 2.07691 3.91665 2.58317 3.91665Z" fill="#111111" stroke="#111111" stroke-width="2.5" stroke-linecap="round" stroke-linejoin="round"/>
</svg>
