<svg width="20" height="18" viewBox="0 0 20 18" fill="none" xmlns="http://www.w3.org/2000/svg">
<path d="M18.1781 1.79111C17.6267 1.23583 16.971 0.795009 16.2487 0.493996C15.5264 0.192982 14.4554 0.000599606 13.6729 0C11.543 0 10.8648 1.29998 10.2779 2.43244C10.1414 2.69586 9.78686 2.70648 9.63841 2.44961C8.98316 1.31581 8.2844 0.00534787 5.97713 0.0371124C5.19374 0.0478974 4.4181 0.193672 3.69506 0.495381C2.97203 0.79709 2.31579 1.23881 1.76413 1.79511C0.107664 3.45861 -0.382189 5.78273 0.294219 7.83386C0.881171 9.61372 2.54974 10.733 4.10593 11.7774V11.7774C5.80098 12.9149 7.25826 14.3717 8.39638 16.0663L9.51129 17.7264C9.7302 18.0524 10.2109 18.049 10.4251 17.7199L11.4513 16.1439C12.5868 14.4001 14.0703 12.9098 15.8089 11.7665V11.7665C17.3856 10.7296 19.0736 9.60891 19.6582 7.81461C20.325 5.76793 19.8322 3.45225 18.1781 1.79111Z" fill="#121212" fill-opacity="0.4"/>
</svg>
