<svg width="16" height="18" viewBox="0 0 16 18" fill="none" xmlns="http://www.w3.org/2000/svg">
<path d="M5.24984 2.58332C5.00672 2.58332 4.77356 2.6799 4.60166 2.85181C4.42975 3.02372 4.33317 3.25687 4.33317 3.49999C4.33317 3.7431 4.42975 3.97626 4.60166 4.14817C4.77356 4.32008 5.00672 4.41665 5.24984 4.41665C5.49295 4.41665 5.72611 4.32008 5.89802 4.14817C6.06993 3.97626 6.1665 3.7431 6.1665 3.49999C6.1665 3.25687 6.06993 3.02372 5.89802 2.85181C5.72611 2.6799 5.49295 2.58332 5.24984 2.58332ZM2.65567 2.58332C2.84506 2.04658 3.19626 1.5818 3.66089 1.25305C4.12551 0.924288 4.68067 0.747742 5.24984 0.747742C5.81901 0.747742 6.37417 0.924288 6.83879 1.25305C7.30341 1.5818 7.65462 2.04658 7.844 2.58332H14.4165C14.6596 2.58332 14.8928 2.6799 15.0647 2.85181C15.2366 3.02372 15.3332 3.25687 15.3332 3.49999C15.3332 3.7431 15.2366 3.97626 15.0647 4.14817C14.8928 4.32008 14.6596 4.41665 14.4165 4.41665H7.844C7.65462 4.95339 7.30341 5.41817 6.83879 5.74693C6.37417 6.07569 5.81901 6.25223 5.24984 6.25223C4.68067 6.25223 4.12551 6.07569 3.66089 5.74693C3.19626 5.41817 2.84506 4.95339 2.65567 4.41665H1.58317C1.34006 4.41665 1.1069 4.32008 0.93499 4.14817C0.763081 3.97626 0.666504 3.7431 0.666504 3.49999C0.666504 3.25687 0.763081 3.02372 0.93499 2.85181C1.1069 2.6799 1.34006 2.58332 1.58317 2.58332H2.65567ZM10.7498 8.08332C10.5067 8.08332 10.2736 8.1799 10.1017 8.35181C9.92975 8.52371 9.83317 8.75687 9.83317 8.99999C9.83317 9.2431 9.92975 9.47626 10.1017 9.64817C10.2736 9.82008 10.5067 9.91666 10.7498 9.91666C10.993 9.91666 11.2261 9.82008 11.398 9.64817C11.5699 9.47626 11.6665 9.2431 11.6665 8.99999C11.6665 8.75687 11.5699 8.52371 11.398 8.35181C11.2261 8.1799 10.993 8.08332 10.7498 8.08332ZM8.15567 8.08332C8.34506 7.54658 8.69626 7.0818 9.16089 6.75304C9.62551 6.42429 10.1807 6.24774 10.7498 6.24774C11.319 6.24774 11.8742 6.42429 12.3388 6.75304C12.8034 7.0818 13.1546 7.54658 13.344 8.08332H14.4165C14.6596 8.08332 14.8928 8.1799 15.0647 8.35181C15.2366 8.52371 15.3332 8.75687 15.3332 8.99999C15.3332 9.2431 15.2366 9.47626 15.0647 9.64817C14.8928 9.82008 14.6596 9.91666 14.4165 9.91666H13.344C13.1546 10.4534 12.8034 10.9182 12.3388 11.2469C11.8742 11.5757 11.319 11.7522 10.7498 11.7522C10.1807 11.7522 9.62551 11.5757 9.16089 11.2469C8.69626 10.9182 8.34506 10.4534 8.15567 9.91666H1.58317C1.34006 9.91666 1.1069 9.82008 0.93499 9.64817C0.763081 9.47626 0.666504 9.2431 0.666504 8.99999C0.666504 8.75687 0.763081 8.52371 0.93499 8.35181C1.1069 8.1799 1.34006 8.08332 1.58317 8.08332H8.15567ZM5.24984 13.5833C5.00672 13.5833 4.77356 13.6799 4.60166 13.8518C4.42975 14.0237 4.33317 14.2569 4.33317 14.5C4.33317 14.7431 4.42975 14.9763 4.60166 15.1482C4.77356 15.3201 5.00672 15.4167 5.24984 15.4167C5.49295 15.4167 5.72611 15.3201 5.89802 15.1482C6.06993 14.9763 6.1665 14.7431 6.1665 14.5C6.1665 14.2569 6.06993 14.0237 5.89802 13.8518C5.72611 13.6799 5.49295 13.5833 5.24984 13.5833ZM2.65567 13.5833C2.84506 13.0466 3.19626 12.5818 3.66089 12.253C4.12551 11.9243 4.68067 11.7477 5.24984 11.7477C5.81901 11.7477 6.37417 11.9243 6.83879 12.253C7.30341 12.5818 7.65462 13.0466 7.844 13.5833H14.4165C14.6596 13.5833 14.8928 13.6799 15.0647 13.8518C15.2366 14.0237 15.3332 14.2569 15.3332 14.5C15.3332 14.7431 15.2366 14.9763 15.0647 15.1482C14.8928 15.3201 14.6596 15.4167 14.4165 15.4167H7.844C7.65462 15.9534 7.30341 16.4182 6.83879 16.7469C6.37417 17.0757 5.81901 17.2522 5.24984 17.2522C4.68067 17.2522 4.12551 17.0757 3.66089 16.7469C3.19626 16.4182 2.84506 15.9534 2.65567 15.4167H1.58317C1.34006 15.4167 1.1069 15.3201 0.93499 15.1482C0.763081 14.9763 0.666504 14.7431 0.666504 14.5C0.666504 14.2569 0.763081 14.0237 0.93499 13.8518C1.1069 13.6799 1.34006 13.5833 1.58317 13.5833H2.65567Z" fill="#111111"/>
</svg>
