<svg width="24" height="24" viewBox="0 0 24 24" fill="none" xmlns="http://www.w3.org/2000/svg">
<path d="M20.9788 11.8024C20.9418 11.617 20.8526 11.4461 20.722 11.3095C20.5913 11.173 20.4244 11.0765 20.2408 11.0314L13.3808 9.31537L15.9178 3.39437C16.0062 3.1889 16.023 2.95969 15.9655 2.74353C15.908 2.52737 15.7796 2.33679 15.6008 2.20237C15.4224 2.06706 15.2036 1.99583 14.9797 2.00019C14.7558 2.00454 14.5399 2.08422 14.3668 2.22637L3.36683 11.2264C3.22335 11.3437 3.11532 11.4987 3.0548 11.6739C2.99427 11.8491 2.98365 12.0377 3.0241 12.2186C3.06456 12.3995 3.1545 12.5656 3.28389 12.6984C3.41328 12.8311 3.57702 12.9253 3.75683 12.9704L10.4758 14.6514L7.13083 20.5054C7.04454 20.6574 6.99959 20.8295 7.00046 21.0043C7.00132 21.1792 7.04798 21.3508 7.13577 21.502C7.22357 21.6532 7.34945 21.7788 7.50087 21.8662C7.65229 21.9537 7.82398 21.9999 7.99883 22.0004C8.21526 22.0007 8.42591 21.9305 8.59883 21.8004L20.5988 12.8004C20.75 12.6869 20.8659 12.533 20.9332 12.3563C21.0005 12.1797 21.0163 11.9876 20.9788 11.8024Z" fill="white"/>
</svg>
