<svg width="28" height="28" viewBox="0 0 28 28" fill="none" xmlns="http://www.w3.org/2000/svg">
<path d="M13.641 5.59961C7.94716 5.59961 3.46681 9.82653 1.34375 12.2831C0.479531 13.2831 0.479448 14.714 1.34352 15.7141C3.46649 18.1713 7.94696 22.3996 13.641 22.3996C17.7388 22.3996 22.7659 18.6545 25.6545 16.1655C27.0006 15.0056 27.0005 12.9926 25.6543 11.8328C22.7657 9.34412 17.7387 5.59961 13.641 5.59961ZM13.641 19.2321C10.8224 19.2321 8.52817 16.8845 8.52817 13.9991C8.52817 11.1136 10.8224 8.76492 13.641 8.76492C16.4596 8.76492 18.7539 11.1136 18.7539 13.9991C18.7539 16.8845 16.4596 19.2321 13.641 19.2321ZM13.641 10.9437C13.2444 10.9361 12.8503 11.0094 12.4817 11.1595C12.1131 11.3096 11.7774 11.5334 11.4943 11.8178C11.2112 12.1022 10.9863 12.4415 10.8328 12.816C10.6792 13.1904 10.6001 13.5924 10.6001 13.9985C10.6001 14.4046 10.6792 14.8066 10.8328 15.1811C10.9863 15.5555 11.2112 15.8948 11.4943 16.1793C11.7774 16.4637 12.1131 16.6875 12.4817 16.8376C12.8503 16.9876 13.2444 17.061 13.641 17.0533C14.4227 17.0382 15.1673 16.7097 15.7149 16.1385C16.2625 15.5672 16.5692 14.7989 16.5692 13.9985C16.5692 13.1982 16.2625 12.4298 15.7149 11.8586C15.1673 11.2873 14.4227 10.9588 13.641 10.9437Z" fill="white"/>
</svg>
