<svg width="22" height="22" viewBox="0 0 22 22" fill="none" xmlns="http://www.w3.org/2000/svg">
<path d="M10.9998 1.8335C8.47259 1.8335 6.4165 3.88958 6.4165 6.41683V9.16683H5.49984C5.01361 9.16683 4.54729 9.35998 4.20347 9.7038C3.85966 10.0476 3.6665 10.5139 3.6665 11.0002V18.3335C3.6665 18.8197 3.85966 19.286 4.20347 19.6299C4.54729 19.9737 5.01361 20.1668 5.49984 20.1668H16.4998C16.9861 20.1668 17.4524 19.9737 17.7962 19.6299C18.14 19.286 18.3332 18.8197 18.3332 18.3335V11.0002C18.3332 10.5139 18.14 10.0476 17.7962 9.7038C17.4524 9.35998 16.9861 9.16683 16.4998 9.16683H15.5832V6.41683C15.5832 3.88958 13.5271 1.8335 10.9998 1.8335ZM8.24984 6.41683C8.24984 4.90066 9.48367 3.66683 10.9998 3.66683C12.516 3.66683 13.7498 4.90066 13.7498 6.41683V9.16683H8.24984V6.41683ZM11.9165 16.2462V18.3335H10.0832V16.2462C9.76269 16.0627 9.50536 15.7864 9.3451 15.4537C9.18484 15.1209 9.12918 14.7474 9.18546 14.3825C9.24175 14.0175 9.40733 13.6781 9.66037 13.4091C9.91342 13.1401 10.242 12.9541 10.6029 12.8757C10.871 12.8162 11.149 12.8177 11.4164 12.8801C11.6838 12.9425 11.9337 13.0642 12.1478 13.2361C12.3619 13.408 12.5346 13.6259 12.6533 13.8735C12.7719 14.1211 12.8334 14.3923 12.8332 14.6668C12.8326 14.9874 12.7476 15.3022 12.5867 15.5795C12.4258 15.8568 12.1946 16.0868 11.9165 16.2462Z" fill="black"/>
</svg>
