<svg width="22" height="22" viewBox="0 0 22 22" fill="none" xmlns="http://www.w3.org/2000/svg">
<path d="M10.9987 14.6661C13.0209 14.6661 14.6654 13.0216 14.6654 10.9994V5.49939C14.6654 3.46714 13.0291 1.81348 11.0179 1.81348C10.9534 1.81386 10.8892 1.82155 10.8264 1.83639C9.88518 1.88203 8.99755 2.28772 8.34713 2.96953C7.69671 3.65135 7.33328 4.5571 7.33203 5.49939V10.9994C7.33203 13.0216 8.97653 14.6661 10.9987 14.6661Z" fill="black"/>
<path d="M10.0827 18.2701V20.1667H11.916V18.2701C15.5268 17.8163 18.3327 14.7336 18.3327 11H16.4993C16.4993 14.0333 14.0326 16.5 10.9993 16.5C7.9661 16.5 5.49935 14.0333 5.49935 11H3.66602C3.66602 14.7327 6.47193 17.8163 10.0827 18.2701Z" fill="black"/>
</svg>
