<svg width="16" height="20" viewBox="0 0 16 20" fill="none" xmlns="http://www.w3.org/2000/svg">
<path d="M7.9987 13.6661C10.0209 13.6661 11.6654 12.0216 11.6654 9.99939V4.49939C11.6654 2.46714 10.0291 0.813477 8.01795 0.813477C7.95343 0.813864 7.88916 0.821552 7.82636 0.836393C6.88518 0.882025 5.99755 1.28772 5.34713 1.96953C4.69671 2.65135 4.33328 3.5571 4.33203 4.49939V9.99939C4.33203 12.0216 5.97653 13.6661 7.9987 13.6661Z" fill="black"/>
<path d="M7.08268 17.2701V19.1667H8.91602V17.2701C12.5268 16.8163 15.3327 13.7336 15.3327 10H13.4993C13.4993 13.0333 11.0326 15.5 7.99935 15.5C4.9661 15.5 2.49935 13.0333 2.49935 10H0.666016C0.666016 13.7327 3.47193 16.8163 7.08268 17.2701Z" fill="black"/>
</svg>
