<svg width="22" height="22" viewBox="0 0 22 22" fill="none" xmlns="http://www.w3.org/2000/svg">
<path d="M11.0002 11.9168C11.5064 11.9168 11.9168 11.5064 11.9168 11.0002C11.9168 10.4939 11.5064 10.0835 11.0002 10.0835C10.4939 10.0835 10.0835 10.4939 10.0835 11.0002C10.0835 11.5064 10.4939 11.9168 11.0002 11.9168Z" fill="#111111" stroke="#111111" stroke-width="2.5" stroke-linecap="round" stroke-linejoin="round"/>
<path d="M17.4167 11.9168C17.9229 11.9168 18.3333 11.5064 18.3333 11.0002C18.3333 10.4939 17.9229 10.0835 17.4167 10.0835C16.9104 10.0835 16.5 10.4939 16.5 11.0002C16.5 11.5064 16.9104 11.9168 17.4167 11.9168Z" fill="#111111" stroke="#111111" stroke-width="2.5" stroke-linecap="round" stroke-linejoin="round"/>
<path d="M4.58341 11.9168C5.08968 11.9168 5.50008 11.5064 5.50008 11.0002C5.50008 10.4939 5.08968 10.0835 4.58341 10.0835C4.07715 10.0835 3.66675 10.4939 3.66675 11.0002C3.66675 11.5064 4.07715 11.9168 4.58341 11.9168Z" fill="#111111" stroke="#111111" stroke-width="2.5" stroke-linecap="round" stroke-linejoin="round"/>
</svg>
