<svg width="60" height="60" viewBox="0 0 60 60" fill="none" xmlns="http://www.w3.org/2000/svg">
<g clip-path="url(#clip0_755_4385)">
<path fill-rule="evenodd" clip-rule="evenodd" d="M56.2481 30.0005L59.5601 24.2765C59.9582 23.5879 60.0664 22.7693 59.8611 22.0008C59.6558 21.2323 59.1536 20.5769 58.4651 20.1785L52.7351 16.8665V10.2665C52.7351 9.47089 52.419 8.70783 51.8564 8.14522C51.2938 7.58261 50.5308 7.26654 49.7351 7.26654H43.1381L39.8291 1.53954C39.4315 0.850531 38.7765 0.347668 38.0081 0.141539C37.6275 0.0395433 37.2305 0.0135406 36.8398 0.0650155C36.4491 0.11649 36.0724 0.244435 35.7311 0.441539L30.0011 3.75354L24.2711 0.438539C23.5821 0.0407316 22.7632 -0.0670722 21.9947 0.138841C21.2262 0.344755 20.571 0.84752 20.1731 1.53654L16.8611 7.26654H10.2641C9.46847 7.26654 8.70541 7.58261 8.1428 8.14522C7.58019 8.70783 7.26412 9.47089 7.26412 10.2665V16.8635L1.53412 20.1755C1.1928 20.3728 0.893708 20.6354 0.653929 20.9483C0.414151 21.2612 0.238392 21.6182 0.136698 21.9991C0.035004 22.38 0.00937019 22.7771 0.0612613 23.1679C0.113152 23.5587 0.241551 23.9354 0.439117 24.2765L3.75112 30.0005L0.439117 35.7245C0.0430837 36.4139 -0.0643666 37.2318 0.140193 38C0.344752 38.7682 0.84473 39.4244 1.53112 39.8255L7.26112 43.1375V49.7345C7.26112 50.5302 7.57719 51.2932 8.1398 51.8559C8.70241 52.4185 9.46547 52.7345 10.2611 52.7345H16.8611L20.1731 58.4645C20.4387 58.9186 20.8179 59.2956 21.2735 59.5586C21.729 59.8216 22.2451 59.9615 22.7711 59.9645C23.2931 59.9645 23.8121 59.8265 24.2741 59.5595L29.9981 56.2475L35.7281 59.5595C36.4168 59.9576 37.2354 60.0659 38.0038 59.8605C38.7723 59.6552 39.4278 59.153 39.8261 58.4645L43.1351 52.7345H49.7321C50.5278 52.7345 51.2908 52.4185 51.8534 51.8559C52.416 51.2932 52.7321 50.5302 52.7321 49.7345V43.1375L58.4621 39.8255C58.8034 39.6283 59.1025 39.3657 59.3423 39.0528C59.5821 38.7399 59.7578 38.3828 59.8595 38.002C59.9612 37.6211 59.9869 37.2239 59.935 36.8332C59.8831 36.4424 59.7547 36.0657 59.5571 35.7245L56.2481 30.0005ZM27.7969 44.1457L18.4934 33.0784C18.2091 32.7402 18.2124 32.2455 18.5012 31.9111L21.3929 28.5624C21.755 28.143 22.4064 28.1473 22.763 28.5715L27.8252 34.5937C28.1983 35.0374 28.8874 35.0179 29.2347 34.5538L39.8218 20.4061C40.1687 19.9426 40.8567 19.9224 41.2301 20.3648L44.0682 23.7266C44.3419 24.0508 44.352 24.5221 44.0924 24.8578L29.1977 44.1172C28.8466 44.5711 28.1661 44.585 27.7969 44.1457Z" fill="#5AFF3F"/>
<path d="M18.4934 33.0785L27.7969 44.1458C28.1661 44.5851 28.8466 44.5712 29.1977 44.1173L44.0924 24.8579C44.352 24.5222 44.3419 24.0509 44.0682 23.7267L41.2301 20.3649C40.8567 19.9225 40.1687 19.9427 39.8218 20.4062L29.2347 34.5539C28.8874 35.018 28.1983 35.0375 27.8252 34.5938L22.763 28.5715C22.4064 28.1474 21.755 28.1431 21.3929 28.5624L18.5012 31.9112C18.2124 32.2456 18.2091 32.7403 18.4934 33.0785Z" fill="white"/>
</g>
<defs>
<clipPath id="clip0_755_4385">
<rect width="60" height="60" fill="white"/>
</clipPath>
</defs>
</svg>
