<svg width="18" height="18" viewBox="0 0 18 18" fill="none" xmlns="http://www.w3.org/2000/svg">
<g opacity="0.6" clip-path="url(#clip0_355_5685)">
<path d="M17.7189 0.110491C17.9399 0.271205 18.0303 0.485491 17.9901 0.753348L15.4187 16.1819C15.3852 16.3761 15.278 16.5268 15.0972 16.6339C15.0035 16.6875 14.8997 16.7143 14.7859 16.7143C14.7122 16.7143 14.6318 16.6975 14.5448 16.6641L9.99456 14.8058L7.56376 17.769C7.44322 17.923 7.27916 18 7.07157 18C6.98451 18 6.91085 17.9866 6.85059 17.9598C6.72335 17.9129 6.62123 17.8343 6.54422 17.7238C6.46722 17.6133 6.42871 17.4911 6.42871 17.3571V13.8516L15.1073 3.21429L4.36956 12.5056L0.401925 10.8783C0.154157 10.7846 0.0202288 10.6004 0.000139509 10.3259C-0.0132533 10.058 0.0938895 9.86049 0.321568 9.73326L17.0359 0.0904018C17.1363 0.0301339 17.2434 0 17.3573 0C17.4912 0 17.6117 0.0368304 17.7189 0.110491Z" fill="#8A8A8A"/>
</g>
<defs>
<clipPath id="clip0_355_5685">
<rect width="18" height="18" fill="white"/>
</clipPath>
</defs>
</svg>
