<svg width="18" height="18" viewBox="0 0 18 18" fill="none" xmlns="http://www.w3.org/2000/svg">
<path d="M0.953329 11.7242L2.62 14.6075C2.73065 14.7988 2.91272 14.9383 3.12619 14.9953C3.33965 15.0523 3.56703 15.0223 3.75833 14.9117L4.92166 14.24C5.405 14.6209 5.93916 14.9334 6.50083 15.1667V16.4984C6.50083 16.7194 6.58863 16.9313 6.74491 17.0876C6.90119 17.2439 7.11315 17.3317 7.33416 17.3317H10.6675C10.8885 17.3317 11.1005 17.2439 11.2568 17.0876C11.413 16.9313 11.5008 16.7194 11.5008 16.4984V15.1667C12.0669 14.931 12.5982 14.6193 13.08 14.24L14.2433 14.9117C14.6408 15.1409 15.1525 15.0034 15.3817 14.6075L17.0483 11.7242C17.158 11.5327 17.1876 11.3056 17.1306 11.0924C17.0736 10.8792 16.9347 10.6971 16.7442 10.5859L15.6008 9.92504C15.6902 9.31045 15.6896 8.68613 15.5992 8.07171L16.7425 7.41087C17.1392 7.18171 17.2767 6.66921 17.0467 6.27254L15.38 3.38921C15.2693 3.19795 15.0873 3.05847 14.8738 3.00143C14.6603 2.9444 14.433 2.97447 14.2417 3.08504L13.0783 3.75671C12.5971 3.37702 12.066 3.06522 11.5 2.83004V1.49837C11.5 1.27736 11.4122 1.0654 11.2559 0.909117C11.0996 0.752836 10.8877 0.665039 10.6667 0.665039H7.33333C7.11231 0.665039 6.90035 0.752836 6.74407 0.909117C6.58779 1.0654 6.5 1.27736 6.5 1.49837V2.83004C5.93393 3.06571 5.40265 3.37747 4.92083 3.75671L3.75833 3.08504C3.66364 3.03018 3.55905 2.99453 3.45057 2.98012C3.34208 2.96572 3.23182 2.97285 3.1261 3.0011C3.02037 3.02935 2.92125 3.07817 2.83441 3.14477C2.74756 3.21136 2.6747 3.29442 2.62 3.38921L0.953329 6.27254C0.843652 6.46404 0.814079 6.69112 0.871048 6.90433C0.928018 7.11753 1.06692 7.2996 1.2575 7.41087L2.40083 8.07171C2.31094 8.68621 2.31094 9.31053 2.40083 9.92504L1.2575 10.5859C0.860829 10.815 0.723329 11.3275 0.953329 11.7242ZM9 5.66504C10.8383 5.66504 12.3333 7.16004 12.3333 8.99837C12.3333 10.8367 10.8383 12.3317 9 12.3317C7.16166 12.3317 5.66666 10.8367 5.66666 8.99837C5.66666 7.16004 7.16166 5.66504 9 5.66504Z" fill="#111111"/>
</svg>
