<svg width="25" height="24" viewBox="0 0 25 24" fill="none" xmlns="http://www.w3.org/2000/svg">
<path d="M16.7006 19.4998C16.0006 16.4998 15.5 10.4997 23.3006 12.2998" stroke="white" stroke-width="1.2"/>
<path fill-rule="evenodd" clip-rule="evenodd" d="M4.70156 20.1005V23.0999H5.90156V20.1005H8.89922V18.9005L5.90156 18.9005V15.8999H4.70156V18.9005L1.69922 18.9005V20.1005H4.70156Z" fill="white"/>
<path fill-rule="evenodd" clip-rule="evenodd" d="M8.30001 2.0999H20.3C21.6255 2.0999 22.7 3.17442 22.7 4.4999V11.6999C22.7 15.6764 19.4765 18.8999 15.5 18.8999H10.6992V20.0999H15.5C20.1392 20.0999 23.9 16.3391 23.9 11.6999V4.4999C23.9 2.51168 22.2882 0.899902 20.3 0.899902H8.30001C6.31179 0.899902 4.70001 2.51167 4.70001 4.4999V14.1001H5.90001V4.4999C5.90001 3.17442 6.97453 2.0999 8.30001 2.0999Z" fill="white"/>
<path fill-rule="evenodd" clip-rule="evenodd" d="M11.2984 8.69932C11.9612 8.69932 12.4984 8.16206 12.4984 7.49932C12.4984 6.83657 11.9612 6.29932 11.2984 6.29932C10.6357 6.29932 10.0984 6.83657 10.0984 7.49932C10.0984 8.16206 10.6357 8.69932 11.2984 8.69932ZM17.2984 8.69932C17.9612 8.69932 18.4984 8.16206 18.4984 7.49932C18.4984 6.83657 17.9612 6.29932 17.2984 6.29932C16.6357 6.29932 16.0984 6.83657 16.0984 7.49932C16.0984 8.16206 16.6357 8.69932 17.2984 8.69932Z" fill="white"/>
<path d="M10.7 12.2993C11.8 14.1104 14.9 16.6459 18.5 12.2993" stroke="white" stroke-width="1.2"/>
</svg>
