<svg width="25" height="24" viewBox="0 0 25 24" fill="none" xmlns="http://www.w3.org/2000/svg">
<path fill-rule="evenodd" clip-rule="evenodd" d="M13.5016 8.10049L13.5016 14.0999H14.7016V8.10049H17.7039V6.90049H14.7016V6.8999H13.5016V6.90049H10.5039V8.10049H13.5016Z" fill="white"/>
<path fill-rule="evenodd" clip-rule="evenodd" d="M4.50546 20.1005V23.0999H5.70546V20.1005H8.70311V18.9005L5.70546 18.9005V15.8999H4.50546V18.9005L1.50311 18.9005V20.1005H4.50546Z" fill="white"/>
<path fill-rule="evenodd" clip-rule="evenodd" d="M8.10391 2.0999H20.1039C21.4294 2.0999 22.5039 3.17442 22.5039 4.4999V16.4999C22.5039 17.8254 21.4294 18.8999 20.1039 18.8999H10.5031V20.0999H20.1039C22.0921 20.0999 23.7039 18.4881 23.7039 16.4999V4.4999C23.7039 2.51168 22.0921 0.899902 20.1039 0.899902H8.10391C6.11568 0.899902 4.50391 2.51167 4.50391 4.4999V14.1001H5.70391V4.4999C5.70391 3.17442 6.77842 2.0999 8.10391 2.0999Z" fill="white"/>
</svg>
