<svg width="19" height="21" viewBox="0 0 19 21" fill="none" xmlns="http://www.w3.org/2000/svg">
<path d="M3.15543 16.7619H18.8571V2.09524C18.8571 0.939714 17.9174 0 16.7619 0H3.14286C1.87943 0 0 0.837048 0 3.14286V17.8095C0 20.1153 1.87943 20.9524 3.14286 20.9524H18.8571V18.8571H3.15543C2.67143 18.8446 2.09524 18.6539 2.09524 17.8095C2.09524 17.7037 2.10467 17.6094 2.12038 17.5235C2.23771 16.9201 2.73219 16.7724 3.15543 16.7619ZM5.91695 5.91067C6.35301 5.48017 6.9411 5.23877 7.55386 5.23877C8.16662 5.23877 8.75471 5.48017 9.19076 5.91067L9.42543 6.1401L9.65905 5.91067C10.0953 5.4801 10.6835 5.23868 11.2965 5.23868C11.9094 5.23868 12.4977 5.4801 12.9339 5.91067C13.1503 6.11877 13.3224 6.36842 13.44 6.64466C13.5576 6.92089 13.6182 7.21802 13.6182 7.51824C13.6182 7.81846 13.5576 8.11559 13.44 8.39182C13.3224 8.66805 13.1503 8.9177 12.9339 9.12581L9.42648 12.5714L5.918 9.12581C5.70141 8.91785 5.52907 8.66828 5.41131 8.39208C5.29355 8.11587 5.23279 7.81872 5.23269 7.51846C5.2326 7.2182 5.29316 6.92101 5.41074 6.64473C5.52832 6.36845 5.7005 6.11877 5.91695 5.91067Z" fill="#111111"/>
</svg>
